<svg width="588" height="420" viewBox="0 0 588 420" fill="none" xmlns="http://www.w3.org/2000/svg">
<g filter="url(#filter0_dd)">
<rect x="13" y="51.0002" width="525" height="355" rx="7.28973" fill="url(#paint0_linear)"/>
</g>
<g clip-path="url(#clip0)">
<g opacity="0.8">
<path opacity="0.8" d="M358.748 324.535H61.8507V132.507C61.8507 130.9 62.4888 129.36 63.6245 128.224C64.7602 127.089 66.3006 126.451 67.9067 126.451H352.692C354.298 126.451 355.838 127.089 356.974 128.224C358.11 129.36 358.748 130.9 358.748 132.507V324.535Z" fill="url(#paint1_linear)"/>
</g>
<path d="M71.98 129.939H348.597C350.203 129.939 351.744 130.577 352.879 131.713C354.015 132.848 354.653 134.389 354.653 135.995V324.536H65.9394V135.999C65.9384 134.395 66.5739 132.856 67.7064 131.719C68.8389 130.583 70.3759 129.943 71.98 129.939Z" fill="white"/>
<path d="M345.359 141.261H75.2345V318.437H345.359V141.261Z" fill="#F5F5F5"/>
<path opacity="0.8" d="M345.248 149.862H76.2695V309.265H345.248V149.862Z" fill="#E0E0E0"/>
<path d="M345.248 141.391H76.2695V149.862H345.248V141.391Z" fill="#F5F5F5"/>
<path d="M82.0386 147.555C83.1732 147.555 84.093 146.635 84.093 145.5C84.093 144.366 83.1732 143.446 82.0386 143.446C80.9039 143.446 79.9841 144.366 79.9841 145.5C79.9841 146.635 80.9039 147.555 82.0386 147.555Z" fill="#FF5252"/>
<path d="M87.6833 147.555C88.8179 147.555 89.7377 146.635 89.7377 145.5C89.7377 144.366 88.8179 143.446 87.6833 143.446C86.5487 143.446 85.6289 144.366 85.6289 145.5C85.6289 146.635 86.5487 147.555 87.6833 147.555Z" fill="#FFFF00"/>
<path d="M93.3338 147.555C94.4684 147.555 95.3882 146.635 95.3882 145.5C95.3882 144.366 94.4684 143.446 93.3338 143.446C92.1991 143.446 91.2793 144.366 91.2793 145.5C91.2793 146.635 92.1991 147.555 93.3338 147.555Z" fill="#69F0AE"/>
<g opacity="0.8">
<path opacity="0.8" d="M367.052 337.268C350.525 338.522 66.6982 338.035 56.7824 337.268C43.7812 331.002 44.0189 306.686 44.0189 306.686L174.184 305.816L174.621 313.217H230.321L232.498 306.701H376.746C376.746 306.701 379.613 328.993 367.052 337.268Z" fill="url(#paint2_linear)"/>
</g>
<path d="M374.633 308.644H233.199C233.744 309.274 234.096 310.048 234.213 310.873C234.33 311.697 234.208 312.538 233.861 313.296C233.513 314.053 232.955 314.694 232.253 315.143C231.552 315.592 230.736 315.829 229.903 315.827H175.905C175.072 315.829 174.255 315.592 173.554 315.143C172.852 314.694 172.294 314.053 171.946 313.296C171.599 312.538 171.477 311.697 171.594 310.873C171.711 310.048 172.063 309.274 172.608 308.644H45.9575C45.9575 308.644 45.739 329.76 58.5831 335.218C68.3762 335.869 348.734 336.306 365.059 335.218C377.481 328.016 374.633 308.644 374.633 308.644Z" fill="#F5F5F5"/>
<path d="M75.3457 314.957C76.3068 314.957 77.0859 314.178 77.0859 313.217C77.0859 312.256 76.3068 311.477 75.3457 311.477C74.3847 311.477 73.6056 312.256 73.6056 313.217C73.6056 314.178 74.3847 314.957 75.3457 314.957Z" fill="#E0E0E0"/>
<path d="M80.5708 314.957C81.5318 314.957 82.3109 314.178 82.3109 313.217C82.3109 312.256 81.5318 311.477 80.5708 311.477C79.6097 311.477 78.8306 312.256 78.8306 313.217C78.8306 314.178 79.6097 314.957 80.5708 314.957Z" fill="#E0E0E0"/>
<path d="M85.7901 314.957C86.7511 314.957 87.5302 314.178 87.5302 313.217C87.5302 312.256 86.7511 311.477 85.7901 311.477C84.829 311.477 84.0499 312.256 84.0499 313.217C84.0499 314.178 84.829 314.957 85.7901 314.957Z" fill="#E0E0E0"/>
<path d="M204.936 215.06H217.274C231.455 215.06 245.055 220.693 255.083 230.721C265.11 240.748 270.743 254.348 270.743 268.529V307.399H151.467V268.529C151.467 254.348 157.1 240.748 167.128 230.721C177.155 220.693 190.755 215.06 204.936 215.06Z" fill="black"/>
<path d="M211.222 194.27C241.328 194.27 265.734 169.864 265.734 139.758C265.734 109.653 241.328 85.2468 211.222 85.2468C181.116 85.2468 156.711 109.653 156.711 139.758C156.711 169.864 181.116 194.27 211.222 194.27Z" fill="#333333"/>
<path opacity="0.1" d="M203.196 199.184H218.961C221.909 199.184 224.736 200.355 226.82 202.44C228.905 204.524 230.076 207.352 230.076 210.3V221.131C230.076 225.639 228.286 229.961 225.098 233.149C221.911 236.336 217.588 238.126 213.081 238.126H209.06C204.553 238.126 200.23 236.336 197.043 233.149C193.856 229.961 192.065 225.639 192.065 221.131V210.315C192.065 207.367 193.236 204.54 195.321 202.455C197.405 200.371 200.233 199.199 203.181 199.199L203.196 199.184Z" fill="black"/>
<path d="M192.065 198.072H230.095V220.035C230.095 224.542 228.305 228.865 225.118 232.052C221.93 235.239 217.608 237.03 213.1 237.03H209.06C204.553 237.03 200.23 235.239 197.043 232.052C193.856 228.865 192.065 224.542 192.065 220.035V198.072Z" fill="#FDB797"/>
<path opacity="0.1" d="M192.134 203.557C204.391 208.136 217.882 208.173 230.164 203.661V198.992H192.134V203.557Z" fill="black"/>
<path d="M211.222 206.102C241.328 206.102 265.734 181.697 265.734 151.591C265.734 121.485 241.328 97.0791 211.222 97.0791C181.116 97.0791 156.711 121.485 156.711 151.591C156.711 181.697 181.116 206.102 211.222 206.102Z" fill="#FDB797"/>
<path opacity="0.1" d="M159.106 132.296H263.055C263.055 132.296 254.181 90.3217 214.883 92.9779C175.584 95.6341 159.106 132.296 159.106 132.296Z" fill="black"/>
<path d="M159.106 130.885H263.055C263.055 130.885 254.181 88.9112 214.883 91.5865C175.584 94.2619 159.106 130.885 159.106 130.885Z" fill="#333333"/>
<path d="M157.837 158.778C160.638 158.778 162.908 154.52 162.908 149.268C162.908 144.016 160.638 139.759 157.837 139.759C155.036 139.759 152.766 144.016 152.766 149.268C152.766 154.52 155.036 158.778 157.837 158.778Z" fill="#FDB797"/>
<path d="M264.323 158.778C267.124 158.778 269.394 154.52 269.394 149.268C269.394 144.016 267.124 139.759 264.323 139.759C261.523 139.759 259.252 144.016 259.252 149.268C259.252 154.52 261.523 158.778 264.323 158.778Z" fill="#FDB797"/>
<path d="M167.175 103.074C168.421 99.0032 170.686 95.1128 174.182 92.6866C176.838 90.8429 180.015 89.9575 183.063 88.8767C187.571 87.279 191.898 85.2093 195.972 82.7018C200.594 79.854 204.937 76.4235 210.027 74.5416C218.785 71.3028 228.54 73.0544 237.582 75.3772C239.809 75.9483 242.063 76.5692 244.025 77.7727C246.298 79.1641 248.042 81.2568 249.744 83.3074L264.094 100.617C265.409 102.2 266.731 103.802 267.659 105.642C268.524 107.424 269.076 109.341 269.292 111.311C269.675 114.484 269.376 117.85 267.758 120.613C265.332 124.757 260.33 126.838 255.535 127.029C250.74 127.221 246.033 125.83 241.426 124.481C226.57 120.13 211.53 116.075 196.121 114.27C188.475 113.326 180.758 113.076 173.066 113.522C170.652 113.679 167.463 114.787 165.995 112.326C164.726 110.191 166.52 105.213 167.175 103.074Z" fill="#333333"/>
<path opacity="0.05" d="M174.817 265.075V307.398" stroke="black" stroke-width="1.53316" stroke-miterlimit="10"/>
<path opacity="0.05" d="M248.347 265.075V307.398" stroke="black" stroke-width="1.53316" stroke-miterlimit="10"/>
<g opacity="0.8">
<path opacity="0.8" d="M388.999 147.072H320.597L297.512 166.321V147.072H282.123V71H388.999V147.072Z" fill="url(#paint3_linear)"/>
</g>
<path d="M387.551 71.9048H283.572V144.65H387.551V71.9048Z" fill="white"/>
<path d="M377.669 82.5986H295.281V84.7604H377.669V82.5986Z" fill="#E0E0E0"/>
<path d="M351.923 92.334H295.281V94.4957H351.923V92.334Z" fill="#E0E0E0"/>
<path d="M363.254 102.066H295.281V104.227H363.254V102.066Z" fill="#E0E0E0"/>
<path d="M349.865 111.802H295.281V113.963H349.865V111.802Z" fill="black"/>
<path d="M377.669 121.533H295.281V123.695H377.669V121.533Z" fill="black"/>
<path d="M377.669 131.269H295.281V133.43H377.669V131.269Z" fill="#E0E0E0"/>
<path d="M301.361 143.235V162.476L322.522 141.311L301.361 143.235Z" fill="white"/>
</g>
<path d="M538 100C547.889 100 557.556 97.0676 565.778 91.5735C574.001 86.0794 580.41 78.2705 584.194 69.1342C587.978 59.9979 588.969 49.9445 587.039 40.2455C585.11 30.5464 580.348 21.6373 573.355 14.6447C566.363 7.65205 557.454 2.89002 547.754 0.960758C538.055 -0.968502 528.002 0.0216641 518.866 3.80605C509.73 7.59043 501.921 13.9991 496.427 22.2215C490.932 30.444 488 40.111 488 50C488.015 63.2562 493.288 75.9652 502.661 85.3388C512.035 94.7124 524.744 99.985 538 100ZM538 2.08336C547.477 2.08336 556.741 4.89362 564.621 10.1588C572.501 15.4239 578.643 22.9075 582.269 31.6631C585.896 40.4187 586.845 50.0532 584.996 59.3481C583.147 68.643 578.583 77.1809 571.882 83.8822C565.181 90.5835 556.643 95.1471 547.348 96.996C538.053 98.8448 528.419 97.8959 519.663 94.2692C510.907 90.6425 503.424 84.5009 498.159 76.6211C492.894 68.7412 490.083 59.477 490.083 50C490.098 37.2962 495.151 25.1167 504.134 16.1337C513.117 7.15073 525.296 2.09776 538 2.08336Z" fill="#F9F9F9"/>
<path d="M399.65 379.933V370.483H390.7V366.283H399.65V356.833H404V366.283H412.95V370.483H404V379.933H399.65ZM428.345 384.883V380.183H435.445V359.283H429.595V355.683C431.195 355.383 432.561 355.033 433.695 354.633C434.861 354.199 435.945 353.683 436.945 353.083H441.245V380.183H447.495V384.883H428.345ZM462.329 385.483C459.763 385.483 457.596 385.049 455.829 384.183C454.096 383.283 452.646 382.249 451.479 381.083L454.129 377.383C455.096 378.283 456.179 379.083 457.379 379.783C458.579 380.449 459.979 380.783 461.579 380.783C463.379 380.783 464.846 380.249 465.979 379.183C467.146 378.116 467.729 376.616 467.729 374.683C467.729 372.783 467.196 371.316 466.129 370.283C465.063 369.249 463.646 368.733 461.879 368.733C460.846 368.733 459.979 368.883 459.279 369.183C458.579 369.449 457.746 369.899 456.779 370.533L454.029 368.783L454.979 353.083H471.979V357.933H459.979L459.329 365.633C459.996 365.299 460.646 365.049 461.279 364.883C461.946 364.683 462.696 364.583 463.529 364.583C464.896 364.583 466.179 364.783 467.379 365.183C468.613 365.583 469.679 366.199 470.579 367.033C471.479 367.833 472.196 368.866 472.729 370.133C473.263 371.366 473.529 372.833 473.529 374.533C473.529 376.266 473.213 377.816 472.579 379.183C471.979 380.549 471.163 381.699 470.129 382.633C469.096 383.566 467.896 384.283 466.529 384.783C465.196 385.249 463.796 385.483 462.329 385.483ZM485.214 372.283C482.914 372.283 481.031 371.383 479.564 369.583C478.131 367.749 477.414 365.183 477.414 361.883C477.414 358.583 478.131 356.049 479.564 354.283C481.031 352.483 482.914 351.583 485.214 351.583C487.514 351.583 489.381 352.483 490.814 354.283C492.281 356.049 493.014 358.583 493.014 361.883C493.014 365.183 492.281 367.749 490.814 369.583C489.381 371.383 487.514 372.283 485.214 372.283ZM485.214 368.933C486.281 368.933 487.147 368.383 487.814 367.283C488.514 366.149 488.864 364.349 488.864 361.883C488.864 359.416 488.514 357.649 487.814 356.583C487.147 355.483 486.281 354.933 485.214 354.933C484.147 354.933 483.264 355.483 482.564 356.583C481.897 357.649 481.564 359.416 481.564 361.883C481.564 364.349 481.897 366.149 482.564 367.283C483.264 368.383 484.147 368.933 485.214 368.933ZM486.214 385.483L504.064 351.583H507.564L489.764 385.483H486.214ZM508.664 385.483C506.364 385.483 504.481 384.583 503.014 382.783C501.581 380.949 500.864 378.383 500.864 375.083C500.864 371.783 501.581 369.249 503.014 367.483C504.481 365.683 506.364 364.783 508.664 364.783C510.964 364.783 512.831 365.683 514.264 367.483C515.731 369.249 516.464 371.783 516.464 375.083C516.464 378.383 515.731 380.949 514.264 382.783C512.831 384.583 510.964 385.483 508.664 385.483ZM508.664 382.133C509.731 382.133 510.597 381.583 511.264 380.483C511.964 379.349 512.314 377.549 512.314 375.083C512.314 372.616 511.964 370.849 511.264 369.783C510.597 368.683 509.731 368.133 508.664 368.133C507.597 368.133 506.714 368.683 506.014 369.783C505.347 370.849 505.014 372.616 505.014 375.083C505.014 377.549 505.347 379.349 506.014 380.483C506.714 381.583 507.597 382.133 508.664 382.133Z" fill="white"/>
<path d="M414.41 335V340.64H411.32L410.99 334.22V332.06H411.89C412.11 331.98 412.33 331.81 412.55 331.55C412.79 331.29 413.02 330.89 413.24 330.35C413.48 329.81 413.72 329.12 413.96 328.28C414.2 327.44 414.44 326.4 414.68 325.16C414.86 324.24 415.01 323.4 415.13 322.64C415.27 321.88 415.4 321.13 415.52 320.39C415.66 319.63 415.79 318.86 415.91 318.08C416.05 317.28 416.2 316.38 416.36 315.38H427.16V332.06H429.47V334.22L429.14 340.64H426.05V335H414.41ZM417.8 325.64C417.26 328.52 416.56 330.66 415.7 332.06H423.68V318.32H419.06C418.94 319.02 418.83 319.67 418.73 320.27C418.63 320.85 418.53 321.42 418.43 321.98C418.35 322.54 418.26 323.11 418.16 323.69C418.06 324.27 417.94 324.92 417.8 325.64ZM438.62 335.36C437.7 335.36 436.82 335.19 435.98 334.85C435.14 334.51 434.39 334.01 433.73 333.35C433.09 332.69 432.58 331.88 432.2 330.92C431.82 329.96 431.63 328.87 431.63 327.65C431.63 326.43 431.82 325.34 432.2 324.38C432.58 323.42 433.09 322.61 433.73 321.95C434.39 321.29 435.14 320.79 435.98 320.45C436.82 320.09 437.7 319.91 438.62 319.91C439.54 319.91 440.42 320.09 441.26 320.45C442.12 320.79 442.87 321.29 443.51 321.95C444.15 322.61 444.66 323.42 445.04 324.38C445.44 325.34 445.64 326.43 445.64 327.65C445.64 328.87 445.44 329.96 445.04 330.92C444.66 331.88 444.15 332.69 443.51 333.35C442.87 334.01 442.12 334.51 441.26 334.85C440.42 335.19 439.54 335.36 438.62 335.36ZM438.62 332.54C439.7 332.54 440.55 332.1 441.17 331.22C441.79 330.32 442.1 329.13 442.1 327.65C442.1 326.15 441.79 324.96 441.17 324.08C440.55 323.18 439.7 322.73 438.62 322.73C437.54 322.73 436.69 323.18 436.07 324.08C435.47 324.96 435.17 326.15 435.17 327.65C435.17 329.13 435.47 330.32 436.07 331.22C436.69 332.1 437.54 332.54 438.62 332.54ZM446.611 335L451.291 327.32L446.911 320.27H450.631L452.281 323.06C452.501 323.46 452.721 323.88 452.941 324.32C453.181 324.74 453.411 325.15 453.631 325.55H453.751C453.931 325.15 454.121 324.74 454.321 324.32C454.521 323.88 454.711 323.46 454.891 323.06L456.301 320.27H459.871L455.521 327.71L460.201 335H456.481L454.681 332.09C454.441 331.65 454.191 331.21 453.931 330.77C453.691 330.33 453.441 329.9 453.181 329.48H453.061C452.841 329.9 452.621 330.33 452.401 330.77C452.201 331.19 451.991 331.63 451.771 332.09L450.211 335H446.611ZM468.181 335.36C467.261 335.36 466.381 335.19 465.541 334.85C464.701 334.51 463.951 334.01 463.291 333.35C462.651 332.69 462.141 331.88 461.761 330.92C461.381 329.96 461.191 328.87 461.191 327.65C461.191 326.43 461.381 325.34 461.761 324.38C462.141 323.42 462.651 322.61 463.291 321.95C463.951 321.29 464.701 320.79 465.541 320.45C466.381 320.09 467.261 319.91 468.181 319.91C469.101 319.91 469.981 320.09 470.821 320.45C471.681 320.79 472.431 321.29 473.071 321.95C473.711 322.61 474.221 323.42 474.601 324.38C475.001 325.34 475.201 326.43 475.201 327.65C475.201 328.87 475.001 329.96 474.601 330.92C474.221 331.88 473.711 332.69 473.071 333.35C472.431 334.01 471.681 334.51 470.821 334.85C469.981 335.19 469.101 335.36 468.181 335.36ZM468.181 332.54C469.261 332.54 470.111 332.1 470.731 331.22C471.351 330.32 471.661 329.13 471.661 327.65C471.661 326.15 471.351 324.96 470.731 324.08C470.111 323.18 469.261 322.73 468.181 322.73C467.101 322.73 466.251 323.18 465.631 324.08C465.031 324.96 464.731 326.15 464.731 327.65C464.731 329.13 465.031 330.32 465.631 331.22C466.251 332.1 467.101 332.54 468.181 332.54ZM480.206 335V340.16H477.206L476.876 334.49V332.24H477.716C477.896 332.14 478.066 331.99 478.226 331.79C478.406 331.59 478.576 331.28 478.736 330.86C478.896 330.44 479.046 329.88 479.186 329.18C479.326 328.48 479.466 327.57 479.606 326.45L480.326 320.27H490.436V332.24H492.686V334.49L492.326 340.16H489.356V335H480.206ZM482.606 327.2C482.466 328.36 482.276 329.35 482.036 330.17C481.816 330.99 481.536 331.68 481.196 332.24H486.986V323H483.056L482.606 327.2Z" fill="white"/>
<defs>
<filter id="filter0_dd" x="0.50332" y="39.545" width="549.993" height="379.993" filterUnits="userSpaceOnUse" color-interpolation-filters="sRGB">
<feFlood flood-opacity="0" result="BackgroundImageFix"/>
<feColorMatrix in="SourceAlpha" type="matrix" values="0 0 0 0 0 0 0 0 0 0 0 0 0 0 0 0 0 0 127 0" result="hardAlpha"/>
<feOffset dy="1.04139"/>
<feGaussianBlur stdDeviation="6.24834"/>
<feColorMatrix type="matrix" values="0 0 0 0 0 0 0 0 0 0 0 0 0 0 0 0 0 0 0.08 0"/>
<feBlend mode="normal" in2="BackgroundImageFix" result="effect1_dropShadow"/>
<feColorMatrix in="SourceAlpha" type="matrix" values="0 0 0 0 0 0 0 0 0 0 0 0 0 0 0 0 0 0 127 0" result="hardAlpha"/>
<feOffset/>
<feGaussianBlur stdDeviation="0.520695"/>
<feColorMatrix type="matrix" values="0 0 0 0 0 0 0 0 0 0 0 0 0 0 0 0 0 0 0.08 0"/>
<feBlend mode="normal" in2="effect1_dropShadow" result="effect2_dropShadow"/>
<feBlend mode="normal" in="SourceGraphic" in2="effect2_dropShadow" result="shape"/>
</filter>
<linearGradient id="paint0_linear" x1="69" y1="376.872" x2="793.164" y2="-0.200927" gradientUnits="userSpaceOnUse">
<stop stop-color="#35CC79"/>
<stop offset="1" stop-color="#347D55" stop-opacity="0.65"/>
</linearGradient>
<linearGradient id="paint1_linear" x1="210.299" y1="324.535" x2="210.299" y2="126.458" gradientUnits="userSpaceOnUse">
<stop stop-color="#808080" stop-opacity="0.25"/>
<stop offset="0.54" stop-color="#808080" stop-opacity="0.12"/>
<stop offset="1" stop-color="#808080" stop-opacity="0.1"/>
</linearGradient>
<linearGradient id="paint2_linear" x1="194648" y1="26029.1" x2="194648" y2="23321" gradientUnits="userSpaceOnUse">
<stop stop-color="#808080" stop-opacity="0.25"/>
<stop offset="0.54" stop-color="#808080" stop-opacity="0.12"/>
<stop offset="1" stop-color="#808080" stop-opacity="0.1"/>
</linearGradient>
<linearGradient id="paint3_linear" x1="81581.2" y1="23776.3" x2="81581.2" y2="71" gradientUnits="userSpaceOnUse">
<stop stop-color="#808080" stop-opacity="0.25"/>
<stop offset="0.54" stop-color="#808080" stop-opacity="0.12"/>
<stop offset="1" stop-color="#808080" stop-opacity="0.1"/>
</linearGradient>
<clipPath id="clip0">
<rect width="345" height="267.027" fill="white" transform="translate(44 71)"/>
</clipPath>
</defs>
</svg>
