<svg width="574" height="345" viewBox="0 0 574 345" fill="none" xmlns="http://www.w3.org/2000/svg">
<g clip-path="url(#clip0_748:3019)">
<path d="M36.1074 72.2148C28.966 72.2148 21.985 70.0972 16.0472 66.1296C10.1094 62.1621 5.48138 56.5229 2.7485 49.9251C0.0156143 43.3273 -0.699433 36.0673 0.693779 29.0632C2.08699 22.0591 5.5259 15.6253 10.5756 10.5756C15.6253 5.52592 22.059 2.08702 29.0632 0.69381C36.0673 -0.699402 43.3273 0.0156448 49.9251 2.74853C56.5228 5.48141 62.1621 10.1094 66.1296 16.0472C70.0971 21.985 72.2148 28.966 72.2148 36.1074C72.204 45.6804 68.3963 54.8581 61.6272 61.6272C54.8581 68.3963 45.6803 72.204 36.1074 72.2148ZM36.1074 1.50449C29.2636 1.50449 22.5735 3.53392 16.883 7.33614C11.1926 11.1384 6.75747 16.5426 4.13845 22.8654C1.51944 29.1883 0.834191 36.1458 2.16935 42.8581C3.50451 49.5704 6.80012 55.7361 11.6394 60.5754C16.4787 65.4147 22.6444 68.7103 29.3567 70.0454C36.069 71.3806 43.0265 70.6953 49.3494 68.0763C55.6722 65.4573 61.0765 61.0222 64.8787 55.3318C68.6809 49.6414 70.7103 42.9512 70.7103 36.1074C70.6999 26.9333 67.0509 18.138 60.5639 11.6509C54.0768 5.16389 45.2815 1.51489 36.1074 1.50449V1.50449Z" fill="url(#paint0_linear_748:3019)"/>
<path d="M281.337 51.1523C277.766 51.1523 274.275 50.0935 271.306 48.1097C268.338 46.126 266.024 43.3063 264.657 40.0075C263.291 36.7086 262.933 33.0786 263.63 29.5765C264.326 26.0745 266.046 22.8576 268.571 20.3327C271.096 17.8079 274.312 16.0884 277.815 15.3918C281.317 14.6952 284.947 15.0527 288.245 16.4192C291.544 17.7856 294.364 20.0996 296.348 23.0685C298.331 26.0375 299.39 29.5279 299.39 33.0986C299.385 37.8851 297.481 42.474 294.096 45.8585C290.712 49.2431 286.123 51.1469 281.337 51.1523V51.1523ZM281.337 16.5494C278.064 16.5494 274.864 17.52 272.142 19.3385C269.421 21.1569 267.3 23.7415 266.047 26.7655C264.795 29.7895 264.467 33.117 265.105 36.3272C265.744 39.5375 267.32 42.4862 269.635 44.8007C271.949 47.1151 274.898 48.6913 278.108 49.3299C281.318 49.9684 284.646 49.6407 287.67 48.3881C290.694 47.1355 293.278 45.0144 295.097 42.2929C296.915 39.5714 297.886 36.3718 297.886 33.0986C297.881 28.711 296.136 24.5045 293.033 21.402C289.931 18.2995 285.724 16.5544 281.337 16.5494Z" fill="url(#paint1_linear_748:3019)"/>
<path d="M408.465 139.164C404.448 139.164 400.521 137.973 397.181 135.741C393.841 133.509 391.238 130.337 389.701 126.626C388.163 122.915 387.761 118.831 388.545 114.891C389.328 110.951 391.263 107.332 394.103 104.492C396.944 101.651 400.563 99.7169 404.503 98.9332C408.442 98.1496 412.526 98.5518 416.237 100.089C419.949 101.626 423.121 104.229 425.352 107.57C427.584 110.91 428.775 114.836 428.775 118.853C428.769 124.238 426.627 129.401 422.82 133.208C419.012 137.016 413.85 139.158 408.465 139.164V139.164ZM408.465 100.047C404.745 100.047 401.109 101.15 398.017 103.217C394.924 105.283 392.514 108.22 391.09 111.657C389.667 115.093 389.295 118.874 390.02 122.522C390.746 126.17 392.537 129.521 395.167 132.151C397.797 134.781 401.148 136.572 404.796 137.298C408.444 138.024 412.225 137.651 415.662 136.228C419.098 134.804 422.035 132.394 424.101 129.301C426.168 126.209 427.271 122.573 427.271 118.853C427.265 113.867 425.282 109.087 421.757 105.562C418.231 102.036 413.451 100.053 408.465 100.047V100.047Z" fill="url(#paint2_linear_748:3019)"/>
<path d="M573.247 344.524H403.994C403.794 344.524 403.603 344.445 403.462 344.304C403.321 344.163 403.242 343.972 403.242 343.772C403.242 343.573 403.321 343.381 403.462 343.24C403.603 343.099 403.794 343.02 403.994 343.02H573.247C573.447 343.02 573.638 343.099 573.779 343.24C573.92 343.381 574 343.573 574 343.772C574 343.972 573.92 344.163 573.779 344.304C573.638 344.445 573.447 344.524 573.247 344.524Z" fill="#CCCCCC"/>
<path d="M482.122 115.278C492.325 115.278 500.597 107.006 500.597 96.8024C500.597 86.5985 492.325 78.3267 482.122 78.3267C471.918 78.3267 463.646 86.5985 463.646 96.8024C463.646 107.006 471.918 115.278 482.122 115.278Z" fill="#FFB8B8"/>
<path d="M484.038 316.198L475.306 319.163L459.71 286.893L472.598 282.516L484.038 316.198Z" fill="#FFB8B8"/>
<path d="M468.221 318.787L485.062 313.067L488.664 323.67L461.219 332.992C460.746 331.599 460.552 330.127 460.648 328.66C460.744 327.192 461.128 325.758 461.778 324.439C462.429 323.12 463.332 321.942 464.438 320.972C465.543 320.002 466.829 319.26 468.221 318.787V318.787Z" fill="#2F2E41"/>
<path d="M503.769 334.426L494.559 334.888L488.39 299.582L501.984 298.898L503.769 334.426Z" fill="#FFB8B8"/>
<path d="M487.847 332.588L505.611 331.695L506.173 342.879L477.225 344.334C477.151 342.865 477.367 341.397 477.861 340.011C478.355 338.626 479.117 337.352 480.103 336.261C481.09 335.17 482.281 334.285 483.61 333.654C484.939 333.024 486.379 332.662 487.847 332.588V332.588Z" fill="#2F2E41"/>
<path d="M448.957 217.118C449.783 216.383 450.438 215.475 450.875 214.459C451.312 213.444 451.521 212.344 451.488 211.239C451.454 210.134 451.179 209.049 450.681 208.062C450.183 207.074 449.474 206.208 448.605 205.524L457.387 180.118L443.853 183.577L437.589 207.173C436.536 208.709 436.084 210.577 436.318 212.424C436.551 214.272 437.454 215.969 438.855 217.195C440.257 218.421 442.059 219.09 443.921 219.076C445.783 219.062 447.574 218.365 448.957 217.118Z" fill="#FFB8B8"/>
<path d="M502.908 323.781C502.789 323.781 502.67 323.774 502.551 323.762L490.049 322.438C489.281 322.36 488.562 322.021 488.015 321.477C487.467 320.932 487.123 320.216 487.041 319.449L477.379 233.31L470.387 256.882L483.423 303.207C483.555 303.678 483.584 304.173 483.507 304.657C483.429 305.141 483.248 305.603 482.975 306.01C482.702 306.417 482.344 306.759 481.925 307.014C481.507 307.269 481.038 307.43 480.551 307.486L467.877 308.943C467.07 309.032 466.258 308.83 465.587 308.373C464.916 307.915 464.431 307.233 464.219 306.449L450.371 254.317C450.257 253.888 450.229 253.442 450.287 253.002L456.511 206.214L502.935 209.936L506.292 320.292C506.305 320.745 506.228 321.196 506.064 321.619C505.901 322.042 505.654 322.427 505.338 322.752C505.022 323.078 504.645 323.336 504.227 323.513C503.81 323.69 503.361 323.781 502.908 323.781V323.781Z" fill="#2F2E41"/>
<path d="M486.861 217.937C471.308 217.937 453.699 211.928 452.632 211.559L452.324 211.452L469.87 121.421L470.192 121.434C477.146 121.716 496.122 121.861 496.313 121.862L496.653 121.865L503.967 201.315L505.274 212.936L505.114 213.066C500.64 216.683 493.965 217.937 486.861 217.937Z" fill="black"/>
<path d="M458.762 210.157L447.788 205.736L453.381 138.077C453.516 136.409 454.024 134.792 454.866 133.347C455.709 131.901 456.866 130.663 458.252 129.724L464.027 125.794C463.863 125.239 463.834 124.652 463.941 124.083C464.048 123.514 464.289 122.978 464.643 122.52C464.998 122.062 465.456 121.694 465.98 121.448C466.504 121.201 467.079 121.082 467.658 121.101L469.312 121.154C469.626 120.942 469.997 120.83 470.376 120.833C470.756 120.835 471.125 120.953 471.436 121.169C471.748 121.385 471.986 121.691 472.121 122.045C472.256 122.4 472.28 122.787 472.191 123.155L471.827 130.324L458.762 210.157Z" fill="#2F2E41"/>
<path d="M453.225 198.027L438.896 197.424L443.537 167.566L447.384 139.471C447.46 138.462 447.762 137.483 448.269 136.608C448.776 135.732 449.475 134.983 450.312 134.415C451.15 133.848 452.105 133.477 453.106 133.33C454.107 133.184 455.128 133.265 456.093 133.569V133.569C457.596 134.04 458.885 135.026 459.734 136.353C460.584 137.68 460.939 139.263 460.738 140.826L456.841 171.267L453.225 198.027Z" fill="#2F2E41"/>
<path d="M475.914 211.191L475.817 210.89C475.75 210.683 469.293 189.969 480.098 165.25L485.516 138.301L490.147 121.379C490.234 121.077 490.39 120.799 490.603 120.567C490.816 120.336 491.08 120.157 491.374 120.045C491.72 119.926 492.093 119.91 492.447 120.001C492.802 120.093 493.121 120.286 493.366 120.557V120.557C496.594 119.61 500.064 119.957 503.04 121.525L509.543 124.95C510.989 125.712 512.141 126.932 512.819 128.419C513.497 129.906 513.663 131.576 513.29 133.167L504.402 171.097L508.723 206.525L475.914 211.191Z" fill="#2F2E41"/>
<path d="M485.377 196.588C486.476 196.707 487.589 196.584 488.635 196.227C489.682 195.87 490.638 195.288 491.435 194.522C492.232 193.756 492.852 192.824 493.25 191.792C493.649 190.761 493.816 189.654 493.74 188.551L513.867 173.641L506.832 170.306L485.129 181.485C483.284 181.735 481.594 182.653 480.381 184.065C479.168 185.477 478.514 187.285 478.545 189.147C478.575 191.009 479.288 192.794 480.547 194.166C481.806 195.537 483.525 196.399 485.377 196.588V196.588Z" fill="#FFB8B8"/>
<path d="M497.996 189.914L491.198 177.224L507.963 166.191L499.782 136.846C499.454 135.671 499.372 134.441 499.541 133.233C499.71 132.025 500.126 130.865 500.764 129.825C501.401 128.785 502.246 127.888 503.246 127.189C504.246 126.491 505.379 126.006 506.574 125.764V125.764C508.687 125.343 510.881 125.703 512.749 126.777C514.617 127.851 516.031 129.567 516.73 131.605L527.769 164.053C527.996 164.721 528.009 165.444 527.805 166.121C527.601 166.797 527.191 167.392 526.631 167.824L497.996 189.914Z" fill="#2F2E41"/>
<path d="M483.429 100.721C481.214 101.009 479.544 98.7432 478.769 96.6485C477.994 94.5538 477.403 92.1151 475.478 90.9836C472.847 89.4377 469.481 91.297 466.473 90.7869C463.075 90.2109 460.866 86.6103 460.693 83.1688C460.52 79.7272 461.89 76.4171 463.234 73.244L463.703 77.1875C463.64 75.8509 463.921 74.5207 464.519 73.3239C465.118 72.1271 466.013 71.1039 467.12 70.3521L466.515 76.1384C466.644 75.3401 466.929 74.5751 467.354 73.8872C467.779 73.1993 468.336 72.6022 468.992 72.13C469.649 71.6578 470.392 71.32 471.18 71.1358C471.967 70.9516 472.783 70.9247 473.581 71.0567L473.485 74.5044C477.409 74.0378 481.368 73.5705 485.303 73.926C489.239 74.2815 493.202 75.5267 496.185 78.1187C500.647 81.9958 502.277 88.3799 501.73 94.2657C501.183 100.151 498.753 105.681 496.221 111.022C495.584 112.366 494.702 113.882 493.225 114.053C491.898 114.207 490.683 113.098 490.27 111.827C489.952 110.523 489.965 109.16 490.306 107.862C490.68 105.878 491.15 103.85 490.799 101.862C490.448 99.8741 489.018 97.9096 487.014 97.666C485.01 97.4223 482.96 99.713 483.923 101.487L483.429 100.721Z" fill="#2F2E41"/>
<path d="M241.701 303.586L234.509 300.558L229.576 264.504H163.875L158.528 300.41L152.093 303.628C151.786 303.781 151.539 304.035 151.393 304.347C151.247 304.658 151.211 305.01 151.29 305.345C151.369 305.68 151.559 305.979 151.829 306.192C152.098 306.406 152.433 306.522 152.777 306.522H241.109C241.461 306.522 241.803 306.4 242.076 306.177C242.349 305.953 242.537 305.642 242.606 305.297C242.676 304.951 242.624 304.592 242.459 304.28C242.294 303.968 242.027 303.723 241.701 303.586V303.586Z" fill="#E6E6E6"/>
<path d="M358.455 269.301H35.7168C34.0235 269.297 32.4009 268.622 31.2048 267.423C30.0088 266.224 29.3371 264.6 29.3371 262.907V217.396H364.835V262.907C364.835 264.6 364.163 266.224 362.967 267.423C361.771 268.622 360.149 269.297 358.455 269.301V269.301Z" fill="#CCCCCC"/>
<path d="M365.173 238.906H29.0429V44.1766C29.0452 42.133 29.8581 40.1738 31.3032 38.7288C32.7483 37.2838 34.7075 36.471 36.7511 36.4688H357.464C359.508 36.471 361.467 37.2839 362.912 38.7289C364.357 40.1739 365.17 42.133 365.173 44.1766V238.906Z" fill="black"/>
<path d="M345.097 224.773H49.1184C47.5429 224.771 46.0324 224.144 44.9184 223.03C43.8044 221.916 43.1777 220.406 43.1759 218.83V56.5447C43.1777 54.9691 43.8043 53.4587 44.9184 52.3446C46.0324 51.2305 47.5428 50.6039 49.1184 50.6021H345.097C346.672 50.6039 348.183 51.2305 349.297 52.3446C350.411 53.4587 351.037 54.9691 351.039 56.5447V218.83C351.037 220.406 350.411 221.916 349.297 223.03C348.183 224.144 346.672 224.771 345.097 224.773Z" fill="white"/>
<path d="M342.311 306.898H55.7088C55.5093 306.898 55.3179 306.819 55.1769 306.678C55.0358 306.537 54.9566 306.345 54.9566 306.146C54.9566 305.946 55.0358 305.755 55.1769 305.614C55.3179 305.473 55.5093 305.394 55.7088 305.394H342.311C342.511 305.394 342.702 305.473 342.843 305.614C342.984 305.755 343.063 305.946 343.063 306.146C343.063 306.345 342.984 306.537 342.843 306.678C342.702 306.819 342.511 306.898 342.311 306.898Z" fill="#CCCCCC"/>
<path d="M317.291 204.609H76.9241C76.7246 204.609 76.5332 204.529 76.3921 204.388C76.2511 204.247 76.1718 204.056 76.1718 203.856V88.6487C76.1718 88.4492 76.2511 88.2579 76.3921 88.1168C76.5332 87.9757 76.7246 87.8965 76.9241 87.8965C77.1236 87.8965 77.3149 87.9757 77.456 88.1168C77.597 88.2579 77.6763 88.4492 77.6763 88.6487V203.104H317.291C317.49 203.104 317.681 203.183 317.822 203.324C317.964 203.466 318.043 203.657 318.043 203.856C318.043 204.056 317.964 204.247 317.822 204.388C317.681 204.529 317.49 204.609 317.291 204.609Z" fill="black"/>
<path d="M128.28 196.334H106.418C105.826 196.333 105.258 196.098 104.84 195.679C104.421 195.261 104.186 194.693 104.185 194.101V163.964C104.186 163.372 104.421 162.804 104.84 162.386C105.258 161.967 105.826 161.732 106.418 161.731H128.28C128.872 161.732 129.44 161.967 129.858 162.386C130.277 162.804 130.512 163.372 130.513 163.964V194.101C130.512 194.693 130.277 195.261 129.858 195.679C129.44 196.098 128.872 196.333 128.28 196.334V196.334Z" fill="url(#paint3_linear_748:3019)"/>
<path d="M168.149 196.334H146.287C145.695 196.333 145.127 196.098 144.708 195.679C144.29 195.261 144.054 194.693 144.054 194.101V135.379C144.054 134.787 144.29 134.219 144.708 133.801C145.127 133.382 145.695 133.147 146.287 133.146H168.149C168.741 133.147 169.308 133.382 169.727 133.801C170.146 134.219 170.381 134.787 170.382 135.379V194.101C170.381 194.693 170.146 195.261 169.727 195.679C169.308 196.098 168.741 196.333 168.149 196.334V196.334Z" fill="url(#paint4_linear_748:3019)"/>
<path d="M208.017 196.334H186.155C185.563 196.333 184.995 196.098 184.577 195.679C184.158 195.261 183.923 194.693 183.922 194.101V163.964C183.923 163.372 184.158 162.804 184.577 162.386C184.995 161.967 185.563 161.732 186.155 161.731H208.017C208.609 161.732 209.177 161.967 209.595 162.386C210.014 162.804 210.249 163.372 210.25 163.964V194.101C210.249 194.693 210.014 195.261 209.595 195.679C209.177 196.098 208.609 196.333 208.017 196.334V196.334Z" fill="url(#paint5_linear_748:3019)"/>
<path d="M247.886 196.334H226.024C225.445 196.346 224.885 196.129 224.467 195.729C224.048 195.33 223.805 194.781 223.791 194.202V123.994C223.805 123.416 224.048 122.866 224.467 122.467C224.885 122.067 225.445 121.85 226.024 121.862H247.886C248.464 121.85 249.024 122.067 249.443 122.467C249.861 122.866 250.104 123.416 250.119 123.994V194.202C250.104 194.781 249.861 195.33 249.443 195.729C249.024 196.129 248.464 196.346 247.886 196.334V196.334Z" fill="url(#paint6_linear_748:3019)"/>
<path d="M287.754 196.334H265.892C265.3 196.334 264.732 196.098 264.314 195.679C263.895 195.261 263.66 194.693 263.659 194.101V103.785C263.66 103.193 263.895 102.626 264.314 102.207C264.732 101.788 265.3 101.553 265.892 101.552H287.754C288.346 101.553 288.914 101.788 289.332 102.207C289.751 102.626 289.986 103.193 289.987 103.785V194.101C289.986 194.693 289.751 195.261 289.332 195.679C288.914 196.098 288.346 196.334 287.754 196.334V196.334Z" fill="url(#paint7_linear_748:3019)"/>
<path d="M117.349 152.704C119.841 152.704 121.862 150.683 121.862 148.191C121.862 145.698 119.841 143.677 117.349 143.677C114.856 143.677 112.835 145.698 112.835 148.191C112.835 150.683 114.856 152.704 117.349 152.704Z" fill="url(#paint8_linear_748:3019)"/>
<path d="M157.218 123.367C159.711 123.367 161.731 121.346 161.731 118.854C161.731 116.361 159.711 114.34 157.218 114.34C154.725 114.34 152.704 116.361 152.704 118.854C152.704 121.346 154.725 123.367 157.218 123.367Z" fill="url(#paint9_linear_748:3019)"/>
<path d="M197.086 152.704C199.579 152.704 201.6 150.683 201.6 148.191C201.6 145.698 199.579 143.677 197.086 143.677C194.593 143.677 192.573 145.698 192.573 148.191C192.573 150.683 194.593 152.704 197.086 152.704Z" fill="url(#paint10_linear_748:3019)"/>
<path d="M236.955 109.074C239.448 109.074 241.468 107.053 241.468 104.561C241.468 102.068 239.448 100.047 236.955 100.047C234.462 100.047 232.441 102.068 232.441 104.561C232.441 107.053 234.462 109.074 236.955 109.074Z" fill="url(#paint11_linear_748:3019)"/>
<path d="M276.824 92.5254C279.316 92.5254 281.337 90.5047 281.337 88.012C281.337 85.5193 279.316 83.4985 276.824 83.4985C274.331 83.4985 272.31 85.5193 272.31 88.012C272.31 90.5047 274.331 92.5254 276.824 92.5254Z" fill="url(#paint12_linear_748:3019)"/>
<path d="M197.181 149.202L157.218 119.269L117.801 148.793L116.898 147.589L157.218 117.389L196.992 147.18L236.515 103.928L236.674 103.863L276.542 87.7998L277.105 89.1952L237.395 105.195L197.181 149.202Z" fill="url(#paint13_linear_748:3019)"/>
</g>
<defs>
<linearGradient id="paint0_linear_748:3019" x1="7.70288" y1="66.2895" x2="98.3502" y2="34.6992" gradientUnits="userSpaceOnUse">
<stop stop-color="#BE8515"/>
<stop offset="1" stop-color="#E0A50E" stop-opacity="0.49"/>
</linearGradient>
<linearGradient id="paint1_linear_748:3019" x1="267.134" y1="48.1897" x2="312.458" y2="32.3945" gradientUnits="userSpaceOnUse">
<stop stop-color="#BE8515"/>
<stop offset="1" stop-color="#E0A50E" stop-opacity="0.49"/>
</linearGradient>
<linearGradient id="paint2_linear_748:3019" x1="392.487" y1="135.831" x2="443.476" y2="118.061" gradientUnits="userSpaceOnUse">
<stop stop-color="#BE8515"/>
<stop offset="1" stop-color="#E0A50E" stop-opacity="0.49"/>
</linearGradient>
<linearGradient id="paint3_linear_748:3019" x1="106.993" y1="193.495" x2="150.065" y2="181.956" gradientUnits="userSpaceOnUse">
<stop stop-color="#35CC79"/>
<stop offset="1" stop-color="#347D55" stop-opacity="0.65"/>
</linearGradient>
<linearGradient id="paint4_linear_748:3019" x1="146.862" y1="191.149" x2="192.052" y2="184.52" gradientUnits="userSpaceOnUse">
<stop stop-color="#35CC79"/>
<stop offset="1" stop-color="#347D55" stop-opacity="0.65"/>
</linearGradient>
<linearGradient id="paint5_linear_748:3019" x1="186.73" y1="193.495" x2="229.802" y2="181.956" gradientUnits="userSpaceOnUse">
<stop stop-color="#35CC79"/>
<stop offset="1" stop-color="#347D55" stop-opacity="0.65"/>
</linearGradient>
<linearGradient id="paint6_linear_748:3019" x1="226.599" y1="190.224" x2="272.057" y2="184.565" gradientUnits="userSpaceOnUse">
<stop stop-color="#35CC79"/>
<stop offset="1" stop-color="#347D55" stop-opacity="0.65"/>
</linearGradient>
<linearGradient id="paint7_linear_748:3019" x1="266.467" y1="188.557" x2="312.192" y2="184.085" gradientUnits="userSpaceOnUse">
<stop stop-color="#35CC79"/>
<stop offset="1" stop-color="#347D55" stop-opacity="0.65"/>
</linearGradient>
<linearGradient id="paint8_linear_748:3019" x1="113.798" y1="151.963" x2="127.879" y2="147.005" gradientUnits="userSpaceOnUse">
<stop stop-color="#35CC79"/>
<stop offset="1" stop-color="#347D55" stop-opacity="0.65"/>
</linearGradient>
<linearGradient id="paint9_linear_748:3019" x1="153.667" y1="122.627" x2="167.749" y2="117.669" gradientUnits="userSpaceOnUse">
<stop stop-color="#35CC79"/>
<stop offset="1" stop-color="#347D55" stop-opacity="0.65"/>
</linearGradient>
<linearGradient id="paint10_linear_748:3019" x1="193.536" y1="151.963" x2="207.617" y2="147.005" gradientUnits="userSpaceOnUse">
<stop stop-color="#35CC79"/>
<stop offset="1" stop-color="#347D55" stop-opacity="0.65"/>
</linearGradient>
<linearGradient id="paint11_linear_748:3019" x1="233.404" y1="108.334" x2="247.486" y2="103.376" gradientUnits="userSpaceOnUse">
<stop stop-color="#35CC79"/>
<stop offset="1" stop-color="#347D55" stop-opacity="0.65"/>
</linearGradient>
<linearGradient id="paint12_linear_748:3019" x1="273.273" y1="91.7847" x2="287.355" y2="86.8267" gradientUnits="userSpaceOnUse">
<stop stop-color="#35CC79"/>
<stop offset="1" stop-color="#347D55" stop-opacity="0.65"/>
</linearGradient>
<linearGradient id="paint13_linear_748:3019" x1="133.987" y1="144.164" x2="286.323" y2="4.21865" gradientUnits="userSpaceOnUse">
<stop stop-color="#35CC79"/>
<stop offset="1" stop-color="#347D55" stop-opacity="0.65"/>
</linearGradient>
<clipPath id="clip0_748:3019">
<rect width="574" height="344.525" fill="white"/>
</clipPath>
</defs>
</svg>
