<svg width="50" height="58" viewBox="0 0 50 58" fill="none" xmlns="http://www.w3.org/2000/svg">
<g filter="url(#filter0_d)">
<path d="M27.2727 14.7727C26.9697 14.4697 26.5152 14.4697 26.2121 14.7727C25.5303 15.4545 24.4697 15.4545 23.7879 14.7727C23.4848 14.4697 23.0303 14.4697 22.7273 14.7727C22.4242 15.0757 22.4242 15.5303 22.7273 15.8333C23.3333 16.4394 24.1667 16.7424 25 16.7424C25.8333 16.7424 26.6667 16.4394 27.2727 15.8333C27.5758 15.5303 27.5758 15.0757 27.2727 14.7727ZM27.4242 12.803H28.7879C29.2424 12.803 29.5455 12.5 29.5455 12.0454C29.5455 11.5909 29.2424 11.2878 28.7879 11.2878H27.4242C26.9697 11.2878 26.6667 11.5909 26.6667 12.0454C26.6667 12.5 27.0455 12.803 27.4242 12.803ZM23.3333 12.0454C23.3333 11.5909 23.0303 11.2878 22.5758 11.2878H21.2121C20.7576 11.2878 20.4545 11.5909 20.4545 12.0454C20.4545 12.5 20.7576 12.803 21.2121 12.803H22.5758C22.9545 12.803 23.3333 12.4242 23.3333 12.0454Z" fill="black"/>
<path d="M41.5152 28.8636C40.8334 28.4848 40.1515 28.1818 39.4697 27.9545V22.803C39.4697 22.2727 39.1667 21.8182 38.7121 21.5151C38.2576 21.2121 37.7273 21.2121 37.197 21.4394L35.6818 22.197C34.8485 21.0606 33.4849 20.303 32.0455 20.303H29.5455L28.6364 18.9394C30.0758 18.0303 31.2879 16.5151 32.1212 14.697C34.2424 14.3182 34.8485 10.5303 33.1061 9.24242C32.8788 4.16666 29.697 0.757568 25 0.757568C20.3031 0.757568 17.1212 4.16666 16.894 9.24242C15.1515 10.5303 15.7576 14.3182 17.8788 14.697C18.7121 16.5909 19.9243 18.0303 21.3637 18.9394L20.3788 20.3788H17.8788C16.4394 20.3788 15.0758 21.0606 14.2424 22.2727L12.7273 21.5151C12.2727 21.2879 11.6667 21.2879 11.2121 21.5909C10.7576 21.8939 10.4546 22.3485 10.4546 22.8788V28.0303C9.77275 28.2576 9.09093 28.6364 8.40911 28.9394C7.65154 29.3182 7.12123 30.0758 7.12123 30.9848V35.4545C7.12123 36.2879 7.57578 37.0454 8.40911 37.5C9.01517 37.803 9.69699 38.1061 10.3788 38.4091H10.4546V41.1364C10.4546 41.7424 10.7576 42.197 11.2879 42.5L24.6212 49.3182C24.7728 49.2424 24.9243 49.2424 25 49.2424C25.0758 49.2424 25.2273 49.2424 25.3031 49.1667L38.6364 42.3485C39.1667 42.1212 39.4697 41.5909 39.4697 40.9848V38.2576C40.1515 38.0303 40.8334 37.6515 41.5152 37.3485C42.2728 36.9697 42.8031 36.2121 42.8031 35.303V30.8333C42.8031 30 42.3485 29.2424 41.5152 28.8636ZM25 2.27272C28.0303 2.27272 30.2273 3.93939 31.1364 6.66666L30.6818 6.0606C30.4546 5.75757 30 5.60605 29.697 5.83333C26.5909 7.80302 23.4849 7.80302 20.3788 5.83333C20.0758 5.60605 19.6212 5.68181 19.394 6.0606L18.9394 6.66666C19.7728 3.93939 21.9697 2.27272 25 2.27272ZM19.1667 13.6364C19.0152 13.3333 18.7879 13.1061 18.4849 13.1061C18.4091 13.1061 18.4091 13.1061 18.3334 13.1061H18.2576C18.0303 13.1061 17.5758 12.6515 17.5 11.8182C17.4243 10.9848 17.7273 10.4545 17.9546 10.3788C18.1818 10.303 18.2576 10.2273 18.4091 9.99999L20.2273 7.42424C23.4849 9.24242 26.7424 9.24242 29.9243 7.42424L31.7424 9.99999C31.8182 10.1515 31.9697 10.303 32.197 10.3788C32.4243 10.4545 32.7273 10.9848 32.6515 11.8182C32.5758 12.6515 32.1212 13.1061 31.894 13.1061C31.5152 13.0303 31.1364 13.2576 30.9849 13.5606C29.8485 16.5909 27.5758 18.4091 25.1515 18.4091C22.7273 18.4091 20.3031 16.6667 19.1667 13.6364ZM25 20.0758C25.7576 20.0758 26.5152 19.9242 27.2728 19.697L28.4091 21.3636C28.1061 22.3485 27.197 23.8636 25 24.4697C22.8031 23.8636 21.8182 22.3485 21.5909 21.3636L22.7273 19.697C23.4849 19.9242 24.2424 20.0758 25 20.0758ZM17.8788 21.8939H20.1515C20.6061 23.2576 21.894 25.2273 24.697 25.9848H24.7728C24.8485 25.9848 24.9243 25.9848 24.9243 25.9848C25 25.9848 25.0758 25.9848 25.0758 25.9848C27.9546 25.2273 29.2424 23.3333 29.697 21.8939H31.9697C32.8788 21.8939 33.7121 22.2727 34.2425 22.9545L25 27.7273L15.6061 22.9545C16.1364 22.2727 16.9697 21.8939 17.8788 21.8939ZM9.16669 35.9848C8.93942 35.8333 8.71214 35.6061 8.71214 35.303V30.8333C8.71214 30.5303 8.86366 30.303 9.16669 30.1515C10.8334 29.3182 11.894 28.9394 12.9546 28.8636H13.0303C13.5606 28.8636 13.9394 29.2424 13.9394 29.7727C13.9394 30.303 13.4849 30.6818 13.0303 30.6818H12.9546H12.8788L11.0606 31.0606C10.6818 31.1364 10.3788 31.5151 10.4546 31.9697C10.5303 32.3485 10.8334 32.5758 11.2121 32.5758C11.2879 32.5758 11.2879 32.5758 11.3637 32.5758L13.0303 32.197C13.5606 32.197 13.9394 32.5757 13.9394 33.0303C13.9394 33.4848 13.5606 33.8636 13.0303 33.9394L11.3637 33.6364C10.9849 33.5606 10.5303 33.7879 10.4546 34.2424C10.3788 34.6212 10.6061 35.0758 11.0606 35.1515L12.8788 35.5303C12.9546 35.5303 12.9546 35.5303 13.0303 35.5303C13.3334 35.5303 13.5606 35.6061 13.7121 35.8333C13.8637 35.9848 13.9394 36.2121 13.9394 36.4394C13.9394 36.8939 13.4091 37.2727 12.8788 37.2727V38.0303L12.8031 37.2727C12.197 37.2727 11.5909 37.1212 10.9091 36.8182C10.4546 36.6667 9.92427 36.4394 9.16669 35.9848ZM12.0455 38.7121C12.3485 38.7879 12.5758 38.7879 12.8788 38.7879H12.9546C14.3182 38.7879 15.4546 37.803 15.5303 36.5151C15.6061 35.8333 15.3788 35.2273 14.9243 34.7727C15.3031 34.3182 15.6061 33.7879 15.6061 33.1061C15.6061 32.5 15.3788 31.8939 14.9243 31.4394C15.3031 30.9848 15.6061 30.4545 15.6061 29.7727C15.6061 28.4848 14.5455 27.4242 13.2576 27.3485H13.1818C12.8031 27.3485 12.5 27.3485 12.197 27.4242V22.6515L24.2424 29.0151V47.197L12.0455 40.9848V38.7121ZM37.9546 40.9848L25.7576 47.2727V29.0909L35.7576 23.9394L37.9546 22.803V27.5758C37.6515 27.5 37.2728 27.5 36.9697 27.5C36.894 27.5 36.894 27.5 36.894 27.5C35.6061 27.5757 34.5455 28.6364 34.5455 29.9242C34.5455 30.5303 34.7728 31.1364 35.2273 31.5909C34.8485 32.0454 34.5455 32.5758 34.5455 33.2576C34.5455 33.8636 34.7728 34.4697 35.2273 34.9242C34.7728 35.3788 34.5455 36.0606 34.6212 36.6667C34.697 37.9545 35.8334 38.9394 37.197 38.9394H37.2728C38.7879 38.7121 37.4243 38.7879 37.9546 40.9848ZM41.2879 35.3788C41.2879 35.6818 41.1364 35.9091 40.8334 36.0606C39.697 36.6667 38.4091 37.2727 37.1212 37.3485C37.0455 37.3485 36.9697 37.3485 37.0455 37.3485C36.5152 37.3485 36.0606 36.9697 35.9849 36.5151C35.9849 36.2879 36.0606 36.0606 36.2121 35.9091C36.3637 35.6818 36.6667 35.6061 36.894 35.6061C37.0455 35.6061 37.0455 35.6061 38.8637 35.2273C39.2425 35.1515 39.5455 34.7727 39.4697 34.3182C39.2424 33.1818 37.7273 34.0151 36.894 34.0909C36.3637 34.0909 35.9849 33.7121 35.9849 33.1818C35.9849 32.7273 36.3637 32.3485 36.894 32.3485C37.6515 32.4242 39.2424 33.2576 39.4697 32.1212C39.5455 31.7424 39.3182 31.2879 38.8637 31.2121L37.1212 30.7576H37.0455H36.9697C36.4394 30.7576 36.0606 30.3788 36.0606 29.8485C36.0606 29.3182 36.5152 28.9394 36.9697 28.9394H37.0455C38.3334 28.9394 39.697 29.6212 40.8334 30.2273C41.0606 30.3788 41.2879 30.6061 41.2879 30.9091V35.3788Z" fill="black"/>
</g>
<defs>
<filter id="filter0_d" x="-4" y="0" width="58" height="58" filterUnits="userSpaceOnUse" color-interpolation-filters="sRGB">
<feFlood flood-opacity="0" result="BackgroundImageFix"/>
<feColorMatrix in="SourceAlpha" type="matrix" values="0 0 0 0 0 0 0 0 0 0 0 0 0 0 0 0 0 0 127 0" result="hardAlpha"/>
<feOffset dy="4"/>
<feGaussianBlur stdDeviation="2"/>
<feColorMatrix type="matrix" values="0 0 0 0 0 0 0 0 0 0 0 0 0 0 0 0 0 0 0.05 0"/>
<feBlend mode="normal" in2="BackgroundImageFix" result="effect1_dropShadow"/>
<feBlend mode="normal" in="SourceGraphic" in2="effect1_dropShadow" result="shape"/>
</filter>
</defs>
</svg>
