<svg width="593" height="415" viewBox="0 0 593 415" fill="none" xmlns="http://www.w3.org/2000/svg">
<g filter="url(#filter0_dd)">
<rect x="55" y="46" width="525" height="355" rx="7.28973" fill="url(#paint0_linear)"/>
</g>
<path d="M50 100C59.889 100 69.556 97.0676 77.7785 91.5735C86.0009 86.0794 92.4096 78.2705 96.194 69.1342C99.9783 59.9979 100.969 49.9445 99.0392 40.2455C97.11 30.5464 92.3479 21.6373 85.3553 14.6447C78.3627 7.65205 69.4535 2.89002 59.7545 0.960758C50.0554 -0.968502 40.0021 0.0216641 30.8658 3.80605C21.7295 7.59043 13.9206 13.9991 8.42651 22.2215C2.93243 30.444 0 40.111 0 50C0.0149841 63.2562 5.28764 75.9652 14.6612 85.3388C24.0348 94.7124 36.7438 99.985 50 100ZM50 2.08336C59.477 2.08336 68.7412 4.89362 76.621 10.1588C84.5009 15.4239 90.6425 22.9075 94.2692 31.6631C97.8959 40.4187 98.8448 50.0532 96.9959 59.3481C95.1471 68.643 90.5834 77.1809 83.8822 83.8822C77.1809 90.5835 68.643 95.1471 59.3481 96.996C50.0531 98.8448 40.4187 97.8959 31.6631 94.2692C22.9074 90.6425 15.4239 84.5009 10.1587 76.6211C4.89357 68.7412 2.08333 59.477 2.08333 50C2.09772 37.2962 7.15069 25.1167 16.1337 16.1337C25.1167 7.15073 37.2961 2.09776 50 2.08336Z" fill="#F9F9F9"/>
<path d="M443.65 373.933V364.483H434.7V360.283H443.65V350.833H448V360.283H456.95V364.483H448V373.933H443.65ZM470.545 378.883V375.533C472.745 373.399 474.728 371.433 476.495 369.633C478.295 367.833 479.811 366.166 481.045 364.633C482.311 363.099 483.278 361.666 483.945 360.333C484.611 358.999 484.945 357.733 484.945 356.533C484.945 354.833 484.495 353.499 483.595 352.533C482.695 351.533 481.395 351.033 479.695 351.033C478.461 351.033 477.328 351.383 476.295 352.083C475.295 352.783 474.361 353.616 473.495 354.583L470.295 351.383C471.761 349.816 473.261 348.616 474.795 347.783C476.361 346.916 478.245 346.483 480.445 346.483C481.978 346.483 483.361 346.716 484.595 347.183C485.828 347.649 486.878 348.316 487.745 349.183C488.611 350.016 489.278 351.033 489.745 352.233C490.245 353.433 490.495 354.766 490.495 356.233C490.495 357.633 490.178 359.066 489.545 360.533C488.945 361.966 488.111 363.433 487.045 364.933C486.011 366.399 484.795 367.916 483.395 369.483C481.995 371.049 480.511 372.666 478.945 374.333C479.778 374.266 480.678 374.199 481.645 374.133C482.611 374.033 483.478 373.983 484.245 373.983H492.045V378.883H470.545ZM506.329 379.483C503.763 379.483 501.596 379.049 499.829 378.183C498.096 377.283 496.646 376.249 495.479 375.083L498.129 371.383C499.096 372.283 500.179 373.083 501.379 373.783C502.579 374.449 503.979 374.783 505.579 374.783C507.379 374.783 508.846 374.249 509.979 373.183C511.146 372.116 511.729 370.616 511.729 368.683C511.729 366.783 511.196 365.316 510.129 364.283C509.063 363.249 507.646 362.733 505.879 362.733C504.846 362.733 503.979 362.883 503.279 363.183C502.579 363.449 501.746 363.899 500.779 364.533L498.029 362.783L498.979 347.083H515.979V351.933H503.979L503.329 359.633C503.996 359.299 504.646 359.049 505.279 358.883C505.946 358.683 506.696 358.583 507.529 358.583C508.896 358.583 510.179 358.783 511.379 359.183C512.613 359.583 513.679 360.199 514.579 361.033C515.479 361.833 516.196 362.866 516.729 364.133C517.263 365.366 517.529 366.833 517.529 368.533C517.529 370.266 517.213 371.816 516.579 373.183C515.979 374.549 515.163 375.699 514.129 376.633C513.096 377.566 511.896 378.283 510.529 378.783C509.196 379.249 507.796 379.483 506.329 379.483ZM529.214 366.283C526.914 366.283 525.031 365.383 523.564 363.583C522.131 361.749 521.414 359.183 521.414 355.883C521.414 352.583 522.131 350.049 523.564 348.283C525.031 346.483 526.914 345.583 529.214 345.583C531.514 345.583 533.381 346.483 534.814 348.283C536.281 350.049 537.014 352.583 537.014 355.883C537.014 359.183 536.281 361.749 534.814 363.583C533.381 365.383 531.514 366.283 529.214 366.283ZM529.214 362.933C530.281 362.933 531.147 362.383 531.814 361.283C532.514 360.149 532.864 358.349 532.864 355.883C532.864 353.416 532.514 351.649 531.814 350.583C531.147 349.483 530.281 348.933 529.214 348.933C528.147 348.933 527.264 349.483 526.564 350.583C525.897 351.649 525.564 353.416 525.564 355.883C525.564 358.349 525.897 360.149 526.564 361.283C527.264 362.383 528.147 362.933 529.214 362.933ZM530.214 379.483L548.064 345.583H551.564L533.764 379.483H530.214ZM552.664 379.483C550.364 379.483 548.481 378.583 547.014 376.783C545.581 374.949 544.864 372.383 544.864 369.083C544.864 365.783 545.581 363.249 547.014 361.483C548.481 359.683 550.364 358.783 552.664 358.783C554.964 358.783 556.831 359.683 558.264 361.483C559.731 363.249 560.464 365.783 560.464 369.083C560.464 372.383 559.731 374.949 558.264 376.783C556.831 378.583 554.964 379.483 552.664 379.483ZM552.664 376.133C553.731 376.133 554.597 375.583 555.264 374.483C555.964 373.349 556.314 371.549 556.314 369.083C556.314 366.616 555.964 364.849 555.264 363.783C554.597 362.683 553.731 362.133 552.664 362.133C551.597 362.133 550.714 362.683 550.014 363.783C549.347 364.849 549.014 366.616 549.014 369.083C549.014 371.549 549.347 373.349 550.014 374.483C550.714 375.583 551.597 376.133 552.664 376.133Z" fill="white"/>
<path d="M458.41 329V334.64H455.32L454.99 328.22V326.06H455.89C456.11 325.98 456.33 325.81 456.55 325.55C456.79 325.29 457.02 324.89 457.24 324.35C457.48 323.81 457.72 323.12 457.96 322.28C458.2 321.44 458.44 320.4 458.68 319.16C458.86 318.24 459.01 317.4 459.13 316.64C459.27 315.88 459.4 315.13 459.52 314.39C459.66 313.63 459.79 312.86 459.91 312.08C460.05 311.28 460.2 310.38 460.36 309.38H471.16V326.06H473.47V328.22L473.14 334.64H470.05V329H458.41ZM461.8 319.64C461.26 322.52 460.56 324.66 459.7 326.06H467.68V312.32H463.06C462.94 313.02 462.83 313.67 462.73 314.27C462.63 314.85 462.53 315.42 462.43 315.98C462.35 316.54 462.26 317.11 462.16 317.69C462.06 318.27 461.94 318.92 461.8 319.64ZM482.62 329.36C481.7 329.36 480.82 329.19 479.98 328.85C479.14 328.51 478.39 328.01 477.73 327.35C477.09 326.69 476.58 325.88 476.2 324.92C475.82 323.96 475.63 322.87 475.63 321.65C475.63 320.43 475.82 319.34 476.2 318.38C476.58 317.42 477.09 316.61 477.73 315.95C478.39 315.29 479.14 314.79 479.98 314.45C480.82 314.09 481.7 313.91 482.62 313.91C483.54 313.91 484.42 314.09 485.26 314.45C486.12 314.79 486.87 315.29 487.51 315.95C488.15 316.61 488.66 317.42 489.04 318.38C489.44 319.34 489.64 320.43 489.64 321.65C489.64 322.87 489.44 323.96 489.04 324.92C488.66 325.88 488.15 326.69 487.51 327.35C486.87 328.01 486.12 328.51 485.26 328.85C484.42 329.19 483.54 329.36 482.62 329.36ZM482.62 326.54C483.7 326.54 484.55 326.1 485.17 325.22C485.79 324.32 486.1 323.13 486.1 321.65C486.1 320.15 485.79 318.96 485.17 318.08C484.55 317.18 483.7 316.73 482.62 316.73C481.54 316.73 480.69 317.18 480.07 318.08C479.47 318.96 479.17 320.15 479.17 321.65C479.17 323.13 479.47 324.32 480.07 325.22C480.69 326.1 481.54 326.54 482.62 326.54ZM490.611 329L495.291 321.32L490.911 314.27H494.631L496.281 317.06C496.501 317.46 496.721 317.88 496.941 318.32C497.181 318.74 497.411 319.15 497.631 319.55H497.751C497.931 319.15 498.121 318.74 498.321 318.32C498.521 317.88 498.711 317.46 498.891 317.06L500.301 314.27H503.871L499.521 321.71L504.201 329H500.481L498.681 326.09C498.441 325.65 498.191 325.21 497.931 324.77C497.691 324.33 497.441 323.9 497.181 323.48H497.061C496.841 323.9 496.621 324.33 496.401 324.77C496.201 325.19 495.991 325.63 495.771 326.09L494.211 329H490.611ZM512.181 329.36C511.261 329.36 510.381 329.19 509.541 328.85C508.701 328.51 507.951 328.01 507.291 327.35C506.651 326.69 506.141 325.88 505.761 324.92C505.381 323.96 505.191 322.87 505.191 321.65C505.191 320.43 505.381 319.34 505.761 318.38C506.141 317.42 506.651 316.61 507.291 315.95C507.951 315.29 508.701 314.79 509.541 314.45C510.381 314.09 511.261 313.91 512.181 313.91C513.101 313.91 513.981 314.09 514.821 314.45C515.681 314.79 516.431 315.29 517.071 315.95C517.711 316.61 518.221 317.42 518.601 318.38C519.001 319.34 519.201 320.43 519.201 321.65C519.201 322.87 519.001 323.96 518.601 324.92C518.221 325.88 517.711 326.69 517.071 327.35C516.431 328.01 515.681 328.51 514.821 328.85C513.981 329.19 513.101 329.36 512.181 329.36ZM512.181 326.54C513.261 326.54 514.111 326.1 514.731 325.22C515.351 324.32 515.661 323.13 515.661 321.65C515.661 320.15 515.351 318.96 514.731 318.08C514.111 317.18 513.261 316.73 512.181 316.73C511.101 316.73 510.251 317.18 509.631 318.08C509.031 318.96 508.731 320.15 508.731 321.65C508.731 323.13 509.031 324.32 509.631 325.22C510.251 326.1 511.101 326.54 512.181 326.54ZM524.206 329V334.16H521.206L520.876 328.49V326.24H521.716C521.896 326.14 522.066 325.99 522.226 325.79C522.406 325.59 522.576 325.28 522.736 324.86C522.896 324.44 523.046 323.88 523.186 323.18C523.326 322.48 523.466 321.57 523.606 320.45L524.326 314.27H534.436V326.24H536.686V328.49L536.326 334.16H533.356V329H524.206ZM526.606 321.2C526.466 322.36 526.276 323.35 526.036 324.17C525.816 324.99 525.536 325.68 525.196 326.24H530.986V317H527.056L526.606 321.2Z" fill="white"/>
<g clip-path="url(#clip0)">
<path d="M441.836 189.535H441.251V173.488C441.251 172.268 441.01 171.061 440.544 169.934C440.077 168.807 439.393 167.783 438.53 166.921C437.668 166.058 436.644 165.374 435.517 164.908C434.391 164.441 433.183 164.201 431.963 164.201H397.966C396.747 164.201 395.539 164.441 394.412 164.908C393.285 165.374 392.262 166.058 391.399 166.921C390.537 167.783 389.853 168.807 389.386 169.934C388.919 171.061 388.679 172.268 388.679 173.488V261.521C388.679 262.741 388.919 263.949 389.386 265.075C389.853 266.202 390.537 267.226 391.399 268.088C392.262 268.951 393.285 269.635 394.412 270.102C395.539 270.568 396.747 270.809 397.966 270.809H431.963C433.183 270.809 434.391 270.568 435.517 270.102C436.644 269.635 437.668 268.951 438.53 268.088C439.393 267.226 440.077 266.202 440.544 265.075C441.01 263.949 441.251 262.741 441.251 261.521V200.957H441.836V189.535Z" fill="black"/>
<path d="M439.274 174.034V261.939C439.274 263.779 438.543 265.543 437.243 266.844C435.942 268.145 434.177 268.876 432.338 268.876H398.177C397.266 268.876 396.365 268.696 395.523 268.347C394.682 267.999 393.917 267.488 393.274 266.843C392.63 266.199 392.119 265.435 391.771 264.593C391.422 263.752 391.243 262.85 391.244 261.939V174.034C391.244 172.195 391.974 170.431 393.274 169.131C394.575 167.831 396.338 167.1 398.177 167.1H402.322C402.118 167.601 402.041 168.143 402.096 168.68C402.152 169.217 402.338 169.733 402.64 170.181C402.941 170.629 403.348 170.996 403.824 171.251C404.301 171.505 404.832 171.638 405.372 171.639H424.849C425.39 171.64 425.922 171.507 426.4 171.254C426.877 171 427.285 170.633 427.586 170.184C427.888 169.735 428.074 169.219 428.129 168.681C428.184 168.143 428.105 167.6 427.9 167.1H432.338C434.177 167.1 435.941 167.831 437.242 169.131C438.542 170.431 439.274 172.195 439.274 174.034Z" fill="white"/>
<path d="M432.807 212.105H393.097V222.821H432.807V212.105Z" fill="#FFB8B8"/>
<path d="M434.383 220.93H395.933C395.683 220.93 395.442 220.83 395.265 220.653C395.088 220.475 394.988 220.235 394.988 219.984V210.53C394.988 210.279 395.088 210.039 395.265 209.861C395.442 209.684 395.683 209.584 395.933 209.584H434.383C434.634 209.584 434.874 209.684 435.051 209.861C435.229 210.039 435.328 210.279 435.329 210.53V219.984C435.328 220.235 435.229 220.475 435.051 220.653C434.874 220.83 434.634 220.93 434.383 220.93ZM395.933 210.214C395.85 210.215 395.77 210.248 395.71 210.307C395.651 210.366 395.618 210.446 395.618 210.53V219.984C395.618 220.068 395.651 220.148 395.71 220.207C395.77 220.266 395.85 220.3 395.933 220.3H434.383C434.467 220.3 434.547 220.266 434.606 220.207C434.665 220.148 434.698 220.068 434.698 219.984V210.53C434.698 210.446 434.665 210.366 434.606 210.307C434.547 210.248 434.467 210.215 434.383 210.214H395.933Z" fill="black"/>
<path d="M402.552 218.094H397.509V218.724H402.552V218.094Z" fill="black"/>
<path d="M409.485 218.094H404.443V218.724H409.485V218.094Z" fill="black"/>
<path d="M416.419 218.094H411.376V218.724H416.419V218.094Z" fill="black"/>
<path d="M423.352 218.094H418.31V218.724H423.352V218.094Z" fill="black"/>
<path d="M430.286 218.094H425.243V218.724H430.286V218.094Z" fill="black"/>
<path opacity="0.1" d="M439.274 253.001V261.939C439.274 263.779 438.543 265.543 437.243 266.844C435.942 268.145 434.177 268.876 432.338 268.876H398.177C397.266 268.876 396.365 268.696 395.523 268.347C394.682 267.999 393.917 267.488 393.274 266.844C392.63 266.199 392.119 265.435 391.771 264.593C391.422 263.752 391.243 262.85 391.244 261.939V220.823L439.274 253.001Z" fill="black"/>
<path d="M275.541 244.882H126.469V318H275.541V244.882Z" fill="white"/>
<path opacity="0.1" d="M237.643 318H127.1C126.933 318 126.773 317.933 126.655 317.815C126.536 317.697 126.47 317.537 126.469 317.37V245.513C126.47 245.346 126.536 245.186 126.655 245.067C126.773 244.949 126.933 244.883 127.1 244.882H128.499L237.643 318Z" fill="black"/>
<path d="M426.504 254.652H195.49V255.283H426.504V254.652Z" fill="black"/>
<path d="M268.526 101.361H202.503V100H172.565V101.361H106.27C105.684 101.361 105.103 101.476 104.561 101.701C104.019 101.925 103.527 102.254 103.112 102.669C102.697 103.084 102.368 103.576 102.144 104.118C101.92 104.66 101.804 105.24 101.804 105.827V196.233C101.804 197.417 102.275 198.553 103.112 199.391C103.95 200.228 105.086 200.699 106.27 200.699H268.526C269.711 200.699 270.847 200.228 271.684 199.391C272.522 198.553 272.992 197.417 272.992 196.233V105.827C272.992 105.24 272.877 104.66 272.652 104.118C272.428 103.576 272.099 103.084 271.684 102.669C271.269 102.254 270.777 101.925 270.235 101.701C269.693 101.476 269.113 101.361 268.526 101.361Z" fill="black"/>
<path d="M267.003 109.252H107.793V199.067H267.003V109.252Z" fill="white"/>
<path d="M187.262 106.804C188.164 106.804 188.895 106.073 188.895 105.171C188.895 104.269 188.164 103.538 187.262 103.538C186.36 103.538 185.629 104.269 185.629 105.171C185.629 106.073 186.36 106.804 187.262 106.804Z" fill="#FFB8B8"/>
<path d="M155.149 142.77H151.367C151.117 142.769 150.876 142.67 150.699 142.492C150.522 142.315 150.422 142.075 150.422 141.824V138.042C150.422 137.792 150.522 137.551 150.699 137.374C150.876 137.197 151.117 137.097 151.367 137.097H155.149C155.4 137.097 155.64 137.197 155.817 137.374C155.995 137.551 156.094 137.792 156.095 138.042V141.824C156.094 142.075 155.995 142.315 155.817 142.492C155.64 142.67 155.4 142.769 155.149 142.77ZM151.367 137.727C151.284 137.727 151.204 137.76 151.145 137.82C151.085 137.879 151.052 137.959 151.052 138.042V141.824C151.052 141.908 151.085 141.988 151.145 142.047C151.204 142.106 151.284 142.139 151.367 142.139H155.149C155.233 142.139 155.313 142.106 155.372 142.047C155.431 141.988 155.464 141.908 155.464 141.824V138.042C155.464 137.959 155.431 137.879 155.372 137.82C155.313 137.76 155.233 137.727 155.149 137.727H151.367Z" fill="black"/>
<path d="M222.594 142.139H150.737V142.77H222.594V142.139Z" fill="black"/>
<path d="M220.703 159.473H203.999V164.516H220.703V159.473Z" fill="#FFB8B8"/>
<path d="M221.964 163.255H206.521C206.27 163.255 206.03 163.155 205.852 162.978C205.675 162.801 205.575 162.56 205.575 162.31V158.528C205.575 158.277 205.675 158.037 205.852 157.86C206.03 157.682 206.27 157.583 206.521 157.582H221.964C222.214 157.583 222.455 157.682 222.632 157.86C222.809 158.037 222.909 158.277 222.909 158.528V162.31C222.909 162.56 222.809 162.801 222.632 162.978C222.455 163.155 222.214 163.255 221.964 163.255ZM206.521 158.213C206.437 158.213 206.357 158.246 206.298 158.305C206.239 158.364 206.206 158.444 206.205 158.528V162.31C206.206 162.393 206.239 162.473 206.298 162.532C206.357 162.592 206.437 162.625 206.521 162.625H221.964C222.047 162.625 222.127 162.592 222.186 162.532C222.245 162.473 222.279 162.393 222.279 162.31V158.528C222.279 158.444 222.245 158.364 222.186 158.305C222.127 158.246 222.047 158.213 221.964 158.213H206.521Z" fill="black"/>
<path d="M348.344 165.146H316.827V187.208H348.344V165.146Z" fill="#FFB8B8"/>
<path d="M351.495 185.474H321.24C320.906 185.474 320.585 185.341 320.349 185.105C320.112 184.868 319.979 184.548 319.979 184.214V163.413C319.979 163.079 320.112 162.758 320.349 162.522C320.585 162.286 320.906 162.153 321.24 162.152H351.495C351.83 162.153 352.15 162.286 352.386 162.522C352.623 162.758 352.756 163.079 352.756 163.413V184.214C352.756 184.548 352.623 184.868 352.386 185.105C352.15 185.341 351.83 185.474 351.495 185.474ZM321.24 163.413V184.214H351.496L351.495 163.413H321.24Z" fill="black"/>
<path d="M348.029 162.625H346.768C346.768 159.867 345.672 157.221 343.722 155.271C341.771 153.32 339.126 152.225 336.368 152.225C333.609 152.225 330.964 153.32 329.013 155.271C327.063 157.221 325.967 159.867 325.967 162.625H324.707C324.707 159.532 325.935 156.566 328.122 154.379C330.309 152.192 333.275 150.964 336.368 150.964C339.46 150.964 342.426 152.192 344.613 154.379C346.8 156.566 348.029 159.532 348.029 162.625Z" fill="black"/>
<path d="M339.519 171.292C339.52 170.743 339.377 170.204 339.105 169.727C338.833 169.25 338.442 168.853 337.969 168.574C337.496 168.295 336.959 168.144 336.41 168.137C335.861 168.129 335.32 168.265 334.84 168.531C334.36 168.797 333.958 169.184 333.673 169.653C333.388 170.122 333.231 170.658 333.217 171.206C333.203 171.755 333.332 172.298 333.592 172.781C333.852 173.265 334.233 173.672 334.699 173.962V177.345C334.699 177.564 334.742 177.781 334.826 177.983C334.91 178.186 335.033 178.37 335.188 178.525C335.343 178.68 335.527 178.803 335.729 178.886C335.931 178.97 336.148 179.013 336.368 179.013C336.81 179.013 337.234 178.838 337.547 178.525C337.86 178.212 338.036 177.787 338.036 177.345V173.962C338.49 173.68 338.864 173.286 339.123 172.819C339.383 172.352 339.519 171.826 339.519 171.292Z" fill="black"/>
<path d="M189.659 277.344H184.617V277.974H189.659V277.344Z" fill="black"/>
<path d="M196.593 277.344H191.55V277.974H196.593V277.344Z" fill="black"/>
<path d="M203.527 277.344H198.484V277.974H203.527V277.344Z" fill="black"/>
<path d="M210.46 277.344H205.418V277.974H210.46V277.344Z" fill="black"/>
<path d="M217.394 277.344H212.351V277.974H217.394V277.344Z" fill="black"/>
<path d="M282.16 312.642H134.348C134.014 312.642 133.694 312.509 133.457 312.273C133.221 312.036 133.088 311.716 133.088 311.382V239.525C133.088 239.19 133.221 238.87 133.457 238.634C133.694 238.397 134.014 238.264 134.348 238.264H282.16C282.494 238.264 282.814 238.397 283.051 238.634C283.287 238.87 283.42 239.19 283.42 239.525V311.382C283.42 311.716 283.287 312.036 283.051 312.273C282.814 312.509 282.494 312.642 282.16 312.642ZM134.348 239.525V311.382H282.16L282.16 239.525H134.348Z" fill="black"/>
<path d="M140.967 250.24C142.011 250.24 142.858 249.393 142.858 248.349C142.858 247.305 142.011 246.458 140.967 246.458C139.922 246.458 139.076 247.305 139.076 248.349C139.076 249.393 139.922 250.24 140.967 250.24Z" fill="black"/>
<path d="M147.585 250.24C148.63 250.24 149.476 249.393 149.476 248.349C149.476 247.305 148.63 246.458 147.585 246.458C146.541 246.458 145.694 247.305 145.694 248.349C145.694 249.393 146.541 250.24 147.585 250.24Z" fill="black"/>
<path d="M154.204 250.24C155.248 250.24 156.095 249.393 156.095 248.349C156.095 247.305 155.248 246.458 154.204 246.458C153.159 246.458 152.313 247.305 152.313 248.349C152.313 249.393 153.159 250.24 154.204 250.24Z" fill="black"/>
<path d="M222.279 281.756H179.732C179.481 281.756 179.241 281.656 179.064 281.479C178.886 281.302 178.787 281.061 178.786 280.811V270.095C178.787 269.845 178.886 269.604 179.064 269.427C179.241 269.25 179.481 269.15 179.732 269.15H222.279C222.529 269.15 222.77 269.25 222.947 269.427C223.124 269.604 223.224 269.845 223.224 270.095V280.811C223.224 281.061 223.124 281.302 222.947 281.479C222.77 281.656 222.529 281.756 222.279 281.756ZM179.732 269.78C179.648 269.78 179.568 269.813 179.509 269.873C179.45 269.932 179.417 270.012 179.417 270.095V280.811C179.417 280.894 179.45 280.974 179.509 281.034C179.568 281.093 179.648 281.126 179.732 281.126H222.279C222.362 281.126 222.442 281.093 222.502 281.034C222.561 280.974 222.594 280.894 222.594 280.811V270.095C222.594 270.012 222.561 269.932 222.502 269.873C222.442 269.813 222.362 269.78 222.279 269.78H179.732Z" fill="black"/>
<path d="M232.994 282.071C236.127 282.071 238.667 279.532 238.667 276.399C238.667 273.265 236.127 270.726 232.994 270.726C229.861 270.726 227.321 273.265 227.321 276.399C227.321 279.532 229.861 282.071 232.994 282.071Z" fill="#FFB8B8"/>
<path d="M234.885 281.441C233.701 281.441 232.543 281.09 231.558 280.432C230.574 279.774 229.806 278.839 229.353 277.745C228.9 276.65 228.781 275.446 229.012 274.285C229.243 273.123 229.814 272.056 230.651 271.219C231.488 270.381 232.555 269.811 233.717 269.58C234.879 269.349 236.083 269.468 237.177 269.921C238.271 270.374 239.206 271.142 239.864 272.126C240.522 273.111 240.873 274.269 240.873 275.453C240.872 277.041 240.24 278.563 239.117 279.685C237.995 280.808 236.473 281.439 234.885 281.441ZM234.885 270.095C233.826 270.095 232.79 270.41 231.909 270.998C231.028 271.587 230.341 272.424 229.935 273.403C229.53 274.382 229.424 275.459 229.63 276.498C229.837 277.538 230.347 278.492 231.097 279.242C231.846 279.991 232.801 280.501 233.84 280.708C234.879 280.915 235.957 280.809 236.936 280.403C237.915 279.997 238.751 279.311 239.34 278.43C239.929 277.549 240.243 276.513 240.243 275.453C240.241 274.033 239.676 272.671 238.672 271.666C237.668 270.662 236.306 270.097 234.885 270.095Z" fill="black"/>
<path d="M234.969 277.689L231.918 274.638L232.809 273.747L234.801 275.738L240.358 267.841L241.389 268.567L234.969 277.689Z" fill="black"/>
<path opacity="0.1" d="M231.705 199.067H107.793V116.057L231.705 199.067Z" fill="black"/>
<path d="M277.463 197.433H261.924V196.314C261.924 196.284 261.919 196.256 261.907 196.229C261.896 196.202 261.88 196.177 261.859 196.157C261.839 196.136 261.814 196.12 261.787 196.108C261.76 196.097 261.732 196.092 261.702 196.092H256.375C256.346 196.092 256.317 196.097 256.29 196.108C256.263 196.12 256.239 196.136 256.218 196.157C256.197 196.177 256.181 196.202 256.17 196.229C256.159 196.256 256.153 196.284 256.153 196.314V197.433H252.823V196.314C252.823 196.284 252.818 196.256 252.807 196.229C252.795 196.202 252.779 196.177 252.758 196.157C252.738 196.136 252.713 196.12 252.686 196.108C252.66 196.097 252.631 196.092 252.601 196.092H247.274C247.245 196.092 247.216 196.097 247.189 196.108C247.162 196.12 247.138 196.136 247.117 196.157C247.097 196.177 247.08 196.202 247.069 196.229C247.058 196.256 247.052 196.284 247.052 196.314V197.433H243.723V196.314C243.723 196.284 243.717 196.256 243.706 196.229C243.694 196.202 243.678 196.177 243.658 196.157C243.637 196.136 243.612 196.12 243.585 196.108C243.559 196.097 243.53 196.092 243.501 196.092H238.173C238.144 196.092 238.115 196.097 238.088 196.108C238.061 196.12 238.037 196.136 238.016 196.157C237.996 196.177 237.979 196.202 237.968 196.229C237.957 196.256 237.951 196.284 237.951 196.314V197.433H234.622V196.314C234.622 196.284 234.616 196.256 234.605 196.229C234.594 196.202 234.577 196.177 234.557 196.157C234.536 196.136 234.511 196.12 234.485 196.108C234.458 196.097 234.429 196.092 234.4 196.092H229.072C229.043 196.092 229.014 196.097 228.987 196.108C228.96 196.12 228.936 196.136 228.915 196.157C228.895 196.177 228.878 196.202 228.867 196.229C228.856 196.256 228.85 196.284 228.85 196.314V197.433H225.521V196.314C225.521 196.284 225.515 196.256 225.504 196.229C225.493 196.202 225.476 196.177 225.456 196.157C225.435 196.136 225.411 196.12 225.384 196.108C225.357 196.097 225.328 196.092 225.299 196.092H219.971C219.942 196.092 219.913 196.097 219.886 196.108C219.859 196.12 219.835 196.136 219.814 196.157C219.794 196.177 219.777 196.202 219.766 196.229C219.755 196.256 219.749 196.284 219.749 196.314V197.433H216.42V196.314C216.42 196.284 216.414 196.256 216.403 196.229C216.392 196.202 216.375 196.177 216.355 196.157C216.334 196.136 216.31 196.12 216.283 196.108C216.256 196.097 216.227 196.092 216.198 196.092H210.87C210.841 196.092 210.812 196.097 210.785 196.108C210.758 196.12 210.734 196.136 210.713 196.157C210.693 196.177 210.676 196.202 210.665 196.229C210.654 196.256 210.648 196.284 210.648 196.314V197.433H207.319V196.314C207.319 196.284 207.313 196.256 207.302 196.229C207.291 196.202 207.274 196.177 207.254 196.157C207.233 196.136 207.209 196.12 207.182 196.108C207.155 196.097 207.126 196.092 207.097 196.092H165.366C165.337 196.092 165.308 196.097 165.281 196.108C165.254 196.12 165.229 196.136 165.209 196.157C165.188 196.177 165.172 196.202 165.161 196.229C165.149 196.256 165.144 196.284 165.144 196.314V197.433H161.814V196.314C161.814 196.284 161.808 196.256 161.797 196.229C161.786 196.202 161.77 196.177 161.749 196.157C161.729 196.136 161.704 196.12 161.677 196.108C161.65 196.097 161.621 196.092 161.592 196.092H156.265C156.236 196.092 156.207 196.097 156.18 196.108C156.153 196.12 156.128 196.136 156.108 196.157C156.087 196.177 156.071 196.202 156.06 196.229C156.049 196.256 156.043 196.284 156.043 196.314V197.433H152.713V196.314C152.713 196.284 152.707 196.256 152.696 196.229C152.685 196.202 152.669 196.177 152.648 196.157C152.628 196.136 152.603 196.12 152.576 196.108C152.549 196.097 152.52 196.092 152.491 196.092H147.164C147.135 196.092 147.106 196.097 147.079 196.108C147.052 196.12 147.028 196.136 147.007 196.157C146.986 196.177 146.97 196.202 146.959 196.229C146.948 196.256 146.942 196.284 146.942 196.314V197.433H143.612V196.314C143.612 196.284 143.607 196.256 143.595 196.229C143.584 196.202 143.568 196.177 143.547 196.157C143.527 196.136 143.502 196.12 143.475 196.108C143.448 196.097 143.419 196.092 143.39 196.092H138.063C138.034 196.092 138.005 196.097 137.978 196.108C137.951 196.12 137.927 196.136 137.906 196.157C137.885 196.177 137.869 196.202 137.858 196.229C137.847 196.256 137.841 196.284 137.841 196.314V197.433H134.511V196.314C134.511 196.284 134.506 196.256 134.494 196.229C134.483 196.202 134.467 196.177 134.446 196.157C134.426 196.136 134.401 196.12 134.374 196.108C134.347 196.097 134.319 196.092 134.289 196.092H128.962C128.933 196.092 128.904 196.097 128.877 196.108C128.85 196.12 128.826 196.136 128.805 196.157C128.784 196.177 128.768 196.202 128.757 196.229C128.746 196.256 128.74 196.284 128.74 196.314V197.433H125.41V196.314C125.41 196.284 125.405 196.256 125.394 196.229C125.382 196.202 125.366 196.177 125.345 196.157C125.325 196.136 125.3 196.12 125.273 196.108C125.246 196.097 125.218 196.092 125.188 196.092H119.861C119.832 196.092 119.803 196.097 119.776 196.108C119.749 196.12 119.725 196.136 119.704 196.157C119.684 196.177 119.667 196.202 119.656 196.229C119.645 196.256 119.639 196.284 119.639 196.314V197.433H116.309V196.314C116.309 196.284 116.304 196.256 116.293 196.229C116.281 196.202 116.265 196.177 116.244 196.157C116.224 196.136 116.199 196.12 116.172 196.108C116.146 196.097 116.117 196.092 116.088 196.092H110.76C110.731 196.092 110.702 196.097 110.675 196.108C110.648 196.12 110.624 196.136 110.603 196.157C110.583 196.177 110.566 196.202 110.555 196.229C110.544 196.256 110.538 196.284 110.538 196.314V197.433H100.327C99.6278 197.433 98.935 197.571 98.2887 197.839C97.6423 198.106 97.055 198.499 96.5603 198.993C96.0657 199.488 95.6732 200.075 95.4055 200.722C95.1378 201.368 95 202.061 95 202.76V205.169C95 206.582 95.5613 207.937 96.5604 208.936C97.5594 209.935 98.9145 210.497 100.327 210.497H277.463C278.162 210.497 278.855 210.359 279.501 210.091C280.148 209.823 280.735 209.431 281.23 208.936C281.724 208.442 282.117 207.854 282.384 207.208C282.652 206.562 282.79 205.869 282.79 205.169V202.76C282.79 202.061 282.652 201.368 282.384 200.722C282.117 200.075 281.724 199.488 281.23 198.993C280.735 198.499 280.148 198.106 279.501 197.839C278.855 197.571 278.162 197.433 277.463 197.433Z" fill="black"/>
<path d="M228.897 168.613H145.694C145.444 168.613 145.203 168.513 145.026 168.336C144.849 168.159 144.749 167.918 144.749 167.668V133C144.749 132.749 144.849 132.509 145.026 132.331C145.203 132.154 145.444 132.054 145.694 132.054H228.897C229.148 132.054 229.388 132.154 229.565 132.331C229.743 132.509 229.842 132.749 229.843 133V167.668C229.842 167.918 229.743 168.159 229.565 168.336C229.388 168.513 229.148 168.613 228.897 168.613ZM145.694 132.685C145.611 132.685 145.531 132.718 145.472 132.777C145.412 132.836 145.379 132.916 145.379 133V167.668C145.379 167.751 145.412 167.831 145.472 167.89C145.531 167.949 145.611 167.983 145.694 167.983H228.897C228.981 167.983 229.061 167.949 229.12 167.89C229.179 167.831 229.212 167.751 229.212 167.668V133C229.212 132.916 229.179 132.836 229.12 132.777C229.061 132.718 228.981 132.685 228.897 132.685H145.694Z" fill="black"/>
<path d="M155.149 152.225H151.367C151.117 152.224 150.876 152.125 150.699 151.947C150.522 151.77 150.422 151.53 150.422 151.279V147.497C150.422 147.246 150.522 147.006 150.699 146.829C150.876 146.652 151.117 146.552 151.367 146.552H155.149C155.4 146.552 155.64 146.652 155.817 146.829C155.995 147.006 156.094 147.246 156.095 147.497V151.279C156.094 151.53 155.995 151.77 155.817 151.947C155.64 152.125 155.4 152.224 155.149 152.225ZM151.367 147.182C151.284 147.182 151.204 147.215 151.145 147.274C151.085 147.333 151.052 147.414 151.052 147.497V151.279C151.052 151.363 151.085 151.443 151.145 151.502C151.204 151.561 151.284 151.594 151.367 151.594H155.149C155.233 151.594 155.313 151.561 155.372 151.502C155.431 151.443 155.464 151.363 155.464 151.279V147.497C155.464 147.414 155.431 147.333 155.372 147.274C155.313 147.215 155.233 147.182 155.149 147.182H151.367Z" fill="black"/>
<path d="M222.594 151.594H150.737V152.225H222.594V151.594Z" fill="black"/>
<path d="M409.485 185.001H178.471V185.632H409.485V185.001Z" fill="black"/>
<path d="M178.471 189.414C180.908 189.414 182.883 187.438 182.883 185.002C182.883 182.565 180.908 180.589 178.471 180.589C176.034 180.589 174.059 182.565 174.059 185.002C174.059 187.438 176.034 189.414 178.471 189.414Z" fill="black"/>
<path d="M409.485 189.099C411.4 189.099 412.952 187.546 412.952 185.632C412.952 183.717 411.4 182.165 409.485 182.165C407.571 182.165 406.018 183.717 406.018 185.632C406.018 187.546 407.571 189.099 409.485 189.099Z" fill="black"/>
<path d="M426.504 258.749C428.419 258.749 429.971 257.197 429.971 255.283C429.971 253.368 428.419 251.816 426.504 251.816C424.589 251.816 423.037 253.368 423.037 255.283C423.037 257.197 424.589 258.749 426.504 258.749Z" fill="black"/>
<path d="M196.435 258.749C198.35 258.749 199.902 257.197 199.902 255.283C199.902 253.368 198.35 251.816 196.435 251.816C194.521 251.816 192.969 253.368 192.969 255.283C192.969 257.197 194.521 258.749 196.435 258.749Z" fill="black"/>
</g>
<defs>
<filter id="filter0_dd" x="42.5033" y="34.5447" width="549.993" height="379.993" filterUnits="userSpaceOnUse" color-interpolation-filters="sRGB">
<feFlood flood-opacity="0" result="BackgroundImageFix"/>
<feColorMatrix in="SourceAlpha" type="matrix" values="0 0 0 0 0 0 0 0 0 0 0 0 0 0 0 0 0 0 127 0" result="hardAlpha"/>
<feOffset dy="1.04139"/>
<feGaussianBlur stdDeviation="6.24834"/>
<feColorMatrix type="matrix" values="0 0 0 0 0 0 0 0 0 0 0 0 0 0 0 0 0 0 0.08 0"/>
<feBlend mode="normal" in2="BackgroundImageFix" result="effect1_dropShadow"/>
<feColorMatrix in="SourceAlpha" type="matrix" values="0 0 0 0 0 0 0 0 0 0 0 0 0 0 0 0 0 0 127 0" result="hardAlpha"/>
<feOffset/>
<feGaussianBlur stdDeviation="0.520695"/>
<feColorMatrix type="matrix" values="0 0 0 0 0 0 0 0 0 0 0 0 0 0 0 0 0 0 0.08 0"/>
<feBlend mode="normal" in2="effect1_dropShadow" result="effect2_dropShadow"/>
<feBlend mode="normal" in="SourceGraphic" in2="effect2_dropShadow" result="shape"/>
</filter>
<linearGradient id="paint0_linear" x1="111" y1="371.872" x2="835.164" y2="-5.20117" gradientUnits="userSpaceOnUse">
<stop stop-color="#35CC79"/>
<stop offset="1" stop-color="#347D55" stop-opacity="0.65"/>
</linearGradient>
<clipPath id="clip0">
<rect width="346.836" height="218" fill="white" transform="translate(95 100)"/>
</clipPath>
</defs>
</svg>
